<?xml version="1.0" standalone="no"?>
<!DOCTYPE svg PUBLIC "-//W3C//DTD SVG 20010904//EN"
 "http://www.w3.org/TR/2001/REC-SVG-20010904/DTD/svg10.dtd">
<svg version="1.0" xmlns="http://www.w3.org/2000/svg"
 width="800.000000pt" height="800.000000pt" viewBox="0 0 800.000000 800.000000"
 preserveAspectRatio="xMidYMid meet">
<metadata>
Created by potrace 1.11, written by Peter Selinger 2001-2013
</metadata>
<g transform="translate(0.000000,800.000000) scale(0.100000,-0.100000)"
fill="#000000" stroke="none">
<path d="M3770 7349 c-19 -5 -50 -11 -69 -14 -18 -3 -67 -17 -108 -30 -246
-83 -476 -291 -581 -526 -150 -335 -112 -717 101 -1009 37 -51 142 -160 198
-205 116 -93 346 -188 472 -194 16 -1 17 -29 17 -439 l0 -438 -115 -67 c-63
-37 -117 -67 -120 -67 -3 0 -11 -5 -18 -11 -7 -5 -106 -64 -222 -131 -386
-222 -599 -344 -760 -438 -88 -51 -185 -106 -215 -123 -30 -16 -62 -36 -71
-43 -8 -8 -18 -14 -21 -14 -3 0 -59 -31 -124 -68 -128 -74 -167 -96 -172 -98
-1 -1 14 -30 34 -65 20 -35 46 -81 57 -101 11 -21 25 -38 30 -38 6 0 56 26
111 59 56 32 117 68 136 78 59 34 144 83 160 93 8 5 44 26 80 46 36 20 133 76
216 125 83 48 166 96 185 107 19 10 122 70 229 132 107 62 210 121 228 131
124 71 178 102 264 152 54 32 100 57 103 57 3 0 5 -358 5 -795 l0 -795 -905
-905 -905 -905 80 -80 c43 -44 84 -80 89 -80 5 0 403 394 885 875 l875 876
880 -880 879 -879 85 85 86 84 -904 904 -905 905 0 867 0 868 52 30 c29 17 77
44 108 61 30 17 96 55 145 84 50 29 108 63 130 75 83 47 341 196 355 205 8 5
60 35 115 67 55 32 112 64 126 73 14 8 80 46 145 83 65 37 126 72 134 78 8 5
132 76 275 158 143 82 268 155 277 163 16 12 12 21 -43 115 l-60 102 -82 -48
c-45 -26 -101 -59 -124 -74 -24 -15 -45 -27 -47 -27 -3 0 -55 -29 -116 -65
-61 -36 -130 -76 -153 -89 -46 -26 -344 -198 -392 -227 -16 -10 -46 -26 -65
-37 -19 -10 -165 -95 -325 -187 -159 -92 -310 -179 -335 -193 -25 -14 -58 -34
-75 -44 -16 -10 -33 -18 -37 -18 -5 0 -8 163 -8 363 l0 364 67 12 c240 44 475
192 621 391 254 345 253 839 -1 1180 -127 170 -302 298 -496 361 -68 22 -81
25 -166 39 -60 10 -246 9 -295 -1z m340 -253 c260 -68 477 -285 546 -546 23
-86 27 -260 8 -342 -56 -251 -222 -452 -451 -548 -186 -78 -416 -76 -598 4
-177 79 -326 233 -400 413 -55 137 -68 331 -31 473 72 276 300 493 582 553 88
19 257 16 344 -7z"/>
</g>
</svg>
