<svg width="200" height="200" viewBox="0 0 200 200" fill="none" xmlns="http://www.w3.org/2000/svg">
<line y1="-3" x2="65.0076" y2="-3" transform="matrix(0.707107 -0.707107 0.706341 0.707872 53.9875 183.98)" stroke="#828282" stroke-width="6"/>
<line y1="-3" x2="65.0076" y2="-3" transform="matrix(0.707107 0.707107 -0.707872 0.706341 96 138)" stroke="#828282" stroke-width="6"/>
<line x1="98" y1="63" x2="98" y2="138" stroke="#828282" stroke-width="6"/>
<path d="M123 41C123 54.8071 111.807 66 98 66C84.1929 66 73 54.8071 73 41C73 27.1929 84.1929 16 98 16C111.807 16 123 27.1929 123 41ZM79 41C79 51.4934 87.5066 60 98 60C108.493 60 117 51.4934 117 41C117 30.5066 108.493 22 98 22C87.5066 22 79 30.5066 79 41Z" fill="#828282"/>
<line x1="50.5" y1="116.828" x2="146.502" y2="61.4019" stroke="#828282" stroke-width="6"/>
</svg>
